<?xml version="1.0" encoding="utf-8"?>
<!-- Generator: Adobe Illustrator 18.1.1, SVG Export Plug-In . SVG Version: 6.00 Build 0)  -->
<svg version="1.1" id="Layer_1" xmlns="http://www.w3.org/2000/svg" xmlns:xlink="http://www.w3.org/1999/xlink" x="0px" y="0px"
	 viewBox="294 -7.5 1200 806.5" enable-background="new 294 -7.5 1200 806.5" xml:space="preserve">
<line vector-effect="non-scaling-stroke" fill="none" stroke="#000000" stroke-miterlimit="10" x1="1357.3" y1="224.8" x2="1494" y2="224.8"/>
<line fill="none" vector-effect="non-scaling-stroke" stroke="#000000" stroke-miterlimit="10" x1="765.5" y1="224.8" x2="977.1" y2="224.8"/>
<line fill="none" vector-effect="non-scaling-stroke" stroke="#000000" stroke-miterlimit="10" x1="489" y1="224.8" x2="604.5" y2="224.8"/>
<path fill="none" vector-effect="non-scaling-stroke" stroke="#000000" stroke-miterlimit="10" d="M294,224.8"/>
<path fill="none" vector-effect="non-scaling-stroke" stroke="#000000" stroke-miterlimit="10" d="M294,798"/>
<path fill="none" vector-effect="non-scaling-stroke" stroke="#000000" stroke-miterlimit="10" d="M1494,798"/>
<polyline fill="none" vector-effect="non-scaling-stroke" stroke="#000000" stroke-miterlimit="10" points="1496,798 1380.6,687.9 1495,687.9 "/>
<polyline fill="none" vector-effect="non-scaling-stroke" stroke="#000000" stroke-miterlimit="10" points="573.9,462.8 645.5,462.8 294,798 "/>
<polyline fill="none" vector-effect="non-scaling-stroke" stroke="#000000" stroke-miterlimit="10" points="1106,339.8 1015.5,339.8 895,224.8 718.9,392.8 573.9,392.8 
	"/>
<polyline fill="none" vector-effect="non-scaling-stroke" stroke="#000000" stroke-miterlimit="10" points="1495,493.8 1177,493.8 1054.9,377.3 1106,377.3 "/>
<polyline fill="none" vector-effect="non-scaling-stroke" stroke="#000000" stroke-miterlimit="10" points="974,227.8 1073.2,132.7 1135.7,215.8 "/>
<polyline fill="none" vector-effect="non-scaling-stroke" stroke="#000000" stroke-miterlimit="10" points="1106,324.8 1031.8,324.8 1031.8,234.8 1117.8,234.8 "/>
<polyline fill="none" vector-effect="non-scaling-stroke" stroke="#000000" stroke-miterlimit="10" points="1032,234.8 974,227.8 973.8,275.5 1031.8,324.8 "/>
<g>
	<path fill="none" vector-effect="non-scaling-stroke" stroke="#000000" stroke-miterlimit="10" d="M893,224.8"/>
</g>
<polyline fill="none" vector-effect="non-scaling-stroke" stroke="#000000" stroke-miterlimit="10" points="573.9,302.8 354,100.8 294,187.9 "/>
<polygon fill="none" vector-effect="non-scaling-stroke" stroke="#000000" stroke-miterlimit="10" points="573.9,488.8 404,628.8 403.9,358.8 573.9,302.8 "/>
<line fill="none" vector-effect="non-scaling-stroke" stroke="#000000" stroke-miterlimit="10" x1="404" y1="358.8" x2="294" y2="358.9"/>
<line fill="none" vector-effect="non-scaling-stroke" stroke="#000000" stroke-miterlimit="10" x1="294" y1="628.8" x2="404" y2="628.8"/>
<polyline fill="none" vector-effect="non-scaling-stroke" stroke="#000000" stroke-miterlimit="10" points="1106,247.4 1255,88.8 1404,286.8 "/>
<path fill="none" vector-effect="non-scaling-stroke" stroke="#000000" stroke-miterlimit="10" d="M1234,436.8"/>
<rect x="1193" y="286.8" fill="none" vector-effect="non-scaling-stroke" stroke="#000000" stroke-miterlimit="10" width="211" height="186"/>
<polyline fill="none" vector-effect="non-scaling-stroke" stroke="#000000" stroke-miterlimit="10" points="1193,286.8 1106,247.4 1106,398.8 1193,472.8 "/>
<path fill="none" vector-effect="non-scaling-stroke" stroke="#000000" stroke-miterlimit="10" d="M661,196.8"/>
<polyline fill="none" vector-effect="non-scaling-stroke" stroke="#000000" stroke-miterlimit="10" points="709,261.9 709,364.8 661,364.8 661,262 "/>
<g>
	<path fill="none" vector-effect="non-scaling-stroke" stroke="#000000" stroke-miterlimit="10" d="M685,264.8c55.8,0,101-45.2,101-101s-45.2-101-101-101
		s-101,45.2-101,101C584,219.6,629.2,264.8,685,264.8"/>
</g>
<path fill="none" vector-effect="non-scaling-stroke" stroke="#000000" stroke-miterlimit="10" d="M573.9,462.8"/>
<path fill="none" vector-effect="non-scaling-stroke" stroke="#000000" stroke-miterlimit="10" d="M573.9,392.8"/>
<path fill="none" vector-effect="non-scaling-stroke" stroke="#000000" stroke-miterlimit="10" d="M1404,339.6c0,0,86.2,0,90,0"/>
<path fill="none" vector-effect="non-scaling-stroke" stroke="#000000" stroke-miterlimit="10" d="M1404,377.3c0,0,86.2,0,90,0"/>
</svg>
